#!OML:ASF F:\VICON\USERDATA\INSTALL\Justin_Nancy\Justin_Nancy.ASF
:FULLY-SPECIFIED
:DEGREES
438
root 6.27764 17.7216 10.4184 79.3296 92.2959 79.0651
lowerback 8.10878 -0.594587 -0.317223
upperback -0.141287 -0.615826 3.33586
thorax -4.6603 -0.238234 3.72791
lowerneck -17.7877 -3.67773 -10.3834
upperneck 23.6352 -3.0779 4.59372
head 10.8188 -1.69737 2.96819
rclavicle -6.90777e-015 -1.43125e-014
rhumerus -34.1512 -16.3396 -77.1991
rradius 26.3903
rwrist 13.4499
rhand -12.9947 11.516
rfingers 7.12502
rthumb 13.0983 -18.0526
lclavicle -6.90777e-015 -1.43125e-014
lhumerus -31.4187 6.27511 85.4454
lradius 28.4954
lwrist -7.69125
lhand -16.5356 23.8321
lfingers 7.12502
lthumb 9.68341 53.5895
rfemur -11.496 5.35792 24.88
rtibia 17.817
rfoot -2.98561 -2.58235
rtoes 2.77339
lfemur -9.39262 -3.64063 -19.5926
ltibia 59.0139
lfoot 15.6899 -11.8657
ltoes 2.93887
439
root 6.40441 17.7173 10.4428 76.9118 92.3968 76.818
lowerback 8.22134 -0.537067 -0.382658
upperback -0.0129618 -0.537269 3.45112
thorax -4.59342 -0.196581 3.87674
lowerneck -17.995 -3.75691 -10.5091
upperneck 23.6414 -3.13964 4.62521
head 10.8701 -1.73247 2.99012
rclavicle -7.20594e-015 -1.51076e-014
rhumerus -33.7458 -15.3676 -77.3943
rradius 26.4856
rwrist 12.4436
rhand -12.6473 11.5959
rfingers 7.12502
rthumb 13.4332 -17.9509
lclavicle -7.20594e-015 -1.51076e-014
lhumerus -31.3644 6.10182 85.7538
lradius 28.3659
lwrist -7.53706
lhand -16.4542 23.7476
lfingers 7.12502
lthumb 9.76195 53.5014
rfemur -10.7264 4.82315 25.2812
rtibia 17.6164
rfoot -3.78885 -3.65602
rtoes 13.8362
lfemur -10.5686 -3.34485 -19.2782
ltibia 60.6464
lfoot 13.6029 -10.9822
ltoes 2.75217
440
root 6.5397 17.7207 10.4852 81.7568 92.409 81.7993
lowerback 8.20139 -0.300633 -0.707419
upperback 0.123756 -0.257024 3.45032
thorax -4.45758 -0.0535513 4.0245
lowerneck -17.9276 -3.77304 -10.084
upperneck 23.4814 -3.25729 4.46636
head 10.7951 -1.76609 2.84105
rclavicle -6.4605e-016 -2.06736e-014
rhumerus -33.4447 -14.6279 -77.8637
rradius 26.6365
rwrist 11.3379
rhand -13.1049 11.2789
rfingers 7.12502
rthumb 12.992 -18.2966
lclavicle -6.4605e-016 -2.06736e-014
lhumerus -31.2239 6.33621 85.6125
lradius 28.0281
lwrist -8.21916
lhand -16.9593 24.2166
lfingers 7.12502
lthumb 9.27463 53.9926
rfemur -9.90329 5.57591 25.5649
rtibia 17.4293
rfoot -4.78156 -4.96246
rtoes 23.3867
lfemur -11.6467 -2.77524 -18.8873
ltibia 62.054
lfoot 11.6047 -9.9245
ltoes 3.17589
441
root 6.62826 17.7184 10.3929 61.9535 92.9671 61.3792
lowerback 8.17264 -0.5512 1.19979
upperback -0.257962 -0.425449 2.97972
thorax -4.84438 -0.183297 2.47677
lowerneck -17.6318 -3.87898 -9.5358
upperneck 23.4213 -3.56374 4.33871
head 10.7252 -1.87239 2.65913
rclavicle 5.11871e-015 9.54166e-015
rhumerus -33.489 -14.4877 -78.2193
rradius 26.7603
rwrist 10.5582
rhand -13.5201 11.1639
rfingers 7.12502
rthumb 12.5918 -18.4366
lclavicle 5.11871e-015 9.54166e-015
lhumerus -31.3239 5.90203 85.5193
lradius 27.8024
lwrist -8.24184
lhand -17.6228 24.592
lfingers 7.12502
lthumb 8.63435 54.3954
rfemur -10.4599 3.68421 25.3963
rtibia 17.4609
rfoot -5.0128 -3.9649
rtoes 23.3565
lfemur -14.3139 -4.08989 -19.1559
ltibia 63.5733
lfoot 10.3213 -8.07482
ltoes 3.23055
442
root 6.751 17.7209 10.4174 62.2713 93.0933 61.7849
lowerback 8.36394 -0.424124 1.2382
upperback -0.296887 -0.250939 2.89573
thorax -4.99929 -0.0992117 2.34918
lowerneck -17.2438 -3.92476 -9.38887
upperneck 23.2211 -3.73052 4.42734
head 10.5877 -1.92562 2.64298
rclavicle -9.83984e-015 1.03368e-014
rhumerus -33.4894 -14.4346 -78.5237
rradius 26.8293
rwrist 9.94804
rhand -14.009 11.3569
rfingers 7.12502
rthumb 12.1204 -18.272
lclavicle -9.83984e-015 1.03368e-014
lhumerus -31.511 6.15363 85.2868
lradius 27.6783
lwrist -8.64708
lhand -17.9885 24.7998
lfingers 7.12502
lthumb 8.2814 54.6175
rfemur -9.9652 3.8524 25.6718
rtibia 17.6449
rfoot -5.20086 -3.32022
rtoes 11.7586
lfemur -15.4611 -3.82484 -18.8337
ltibia 64.6043
lfoot 8.49097 -7.14583
ltoes 2.44121
443
root 6.86616 17.7149 10.4215 59.5832 93.2548 58.8848
lowerback 8.26744 -0.4758 1.444
upperback -0.37074 -0.302884 2.85728
thorax -5.02183 -0.130874 2.19917
lowerneck -17.2619 -3.92468 -9.33896
upperneck 23.2645 -3.72126 4.34808
head 10.6038 -1.92625 2.60775
rclavicle 9.93923e-015 2.90226e-014
rhumerus -33.2966 -13.6215 -78.9481
rradius 26.9782
rwrist 8.70879
rhand -15.0701 11.2626
rfingers 7.12502
rthumb 11.0972 -18.424
lclavicle 9.93923e-015 2.90226e-014
lhumerus -31.7134 7.08529 85.0169
lradius 27.6132
lwrist -9.20821
lhand -18.3515 24.6971
lfingers 7.12502
lthumb 7.93106 54.5283
rfemur -9.88513 3.66025 25.8206
rtibia 17.926
rfoot -6.63331 -5.31121
rtoes 39.2321
lfemur -16.9978 -3.66644 -18.6551
ltibia 65.5054
lfoot 6.70366 -6.4675
ltoes -0.672839
444
root 6.99279 17.7089 10.4505 63.9507 93.1336 63.3072
lowerback 8.27142 -0.306054 1.16321
upperback -0.299986 -0.0979062 2.98444
thorax -4.95504 -0.0199689 2.46401
lowerneck -17.405 -3.97432 -9.56661
upperneck 23.4786 -3.70196 4.327
head 10.7148 -1.9398 2.64257
rclavicle 2.03754e-015 -4.77083e-015
rhumerus -32.9669 -12.3655 -79.2595
rradius 27.0924
rwrist 6.73387
rhand -15.699 11.1558
rfingers 7.12502
rthumb 10.4906 -18.5624
lclavicle 2.03754e-015 -4.77083e-015
lhumerus -31.8158 7.55819 85.1335
lradius 27.5605
lwrist -8.72511
lhand -18.045 24.6639
lfingers 7.12502
lthumb 8.22687 54.4838
rfemur -9.43663 4.10215 26.0487
rtibia 18.1737
rfoot -6.18352 -3.86814
rtoes 10.8537
lfemur -17.9534 -3.0029 -18.4037
ltibia 65.9888
lfoot 5.06762 -5.96813
ltoes -2.35298
445
root 7.12183 17.7115 10.4806 68.1014 93.0728 67.5198
lowerback 8.26874 -0.160234 0.906409
upperback -0.232309 0.0751661 3.07747
thorax -4.88921 0.0735366 2.68401
lowerneck -17.2522 -3.99593 -9.81732
upperneck 23.4038 -3.729 4.53786
head 10.6703 -1.94954 2.75746
rclavicle 2.98177e-016 -1.35174e-014
rhumerus -32.6282 -11.5789 -79.4147
rradius 27.1936
rwrist 6.30204
rhand -15.4635 10.7892
rfingers 7.12502
rthumb 10.7176 -18.9174
lclavicle 2.98177e-016 -1.35174e-014
lhumerus -31.9157 7.51412 85.2791
lradius 27.5956
lwrist -7.60863
lhand -17.3696 24.8429
lfingers 7.12502
lthumb 8.8787 54.6361
rfemur -8.95202 4.70661 26.2326
rtibia 18.4242
rfoot -7.07955 -4.49988
rtoes 20.3578
lfemur -18.8909 -2.2748 -18.041
ltibia 66.2912
lfoot 3.56438 -5.46866
ltoes -1.1788
446
root 7.24941 17.7137 10.5042 72.0107 92.9445 71.4463
lowerback 8.28099 -0.154347 0.521856
upperback -0.190267 0.0508565 3.18677
thorax -4.85173 0.0724962 3.01855
lowerneck -16.9606 -3.82779 -9.65249
upperneck 23.0423 -3.53272 4.3937
head 10.459 -1.86243 2.70339
rclavicle 2.83268e-015 -4.77083e-015
rhumerus -32.232 -11.3069 -79.3003
rradius 27.1375
rwrist 8.0564
rhand -14.1912 10.7852
rfingers 7.12502
rthumb 11.9447 -18.854
lclavicle 2.83268e-015 -4.77083e-015
lhumerus -32.1795 7.88305 85.2577
lradius 27.7505
lwrist -7.00383
lhand -18.0064 25.5988
lfingers 7.12502
lthumb 8.26416 55.4172
rfemur -8.65542 5.21691 26.2915
rtibia 18.945
rfoot -8.05776 -4.51613
rtoes 20.8505
lfemur -19.8063 -1.37036 -17.8969
ltibia 66.3228
lfoot 1.882 -5.30293
ltoes -4.2052
447
root 7.36993 17.6925 10.5187 75.1354 92.7759 74.4627
lowerback 8.26333 -0.203967 0.129126
upperback -0.223463 -0.0516792 3.24033
thorax -4.87112 0.0319855 3.31004
lowerneck -16.8849 -3.59334 -9.06339
upperneck 23.0102 -3.25861 3.93745
head 10.3903 -1.73869 2.4805
rclavicle -3.42904e-015 1.35174e-014
rhumerus -31.9174 -10.6581 -79.4689
rradius 27.1911
rwrist 8.81187
rhand -13.4145 10.8744
rfingers 7.12502
rthumb 12.6936 -18.7199
lclavicle -3.42904e-015 1.35174e-014
lhumerus -32.4453 8.67925 85.0772
lradius 27.7341
lwrist -6.72817
lhand -18.9973 26.0237
lfingers 7.12502
lthumb 7.30775 55.8775
rfemur -8.74621 4.90866 26.4608
rtibia 19.6062
rfoot -8.43882 -4.58966
rtoes 14.8918
lfemur -20.8859 -0.890303 -18.0198
ltibia 66.292
lfoot 0.221664 -4.59474
ltoes -7.95982
448
root 7.49096 17.7033 10.5288 71.201 92.609 70.4738
lowerback 8.24146 -0.267958 -0.144901
upperback -0.190006 -0.1815 3.02387
thorax -4.81571 -0.0315067 3.25347
lowerneck -17.0404 -3.40045 -8.17065
upperneck 23.1179 -3.1212 3.5227
head 10.4223 -1.64583 2.20266
rclavicle -1.54058e-015 2.66371e-014
rhumerus -31.6301 -10.1187 -80.0601
rradius 27.3959
rwrist 8.56863
rhand -13.5141 11.0084
rfingers 7.12502
rthumb 12.5976 -18.5917
lclavicle -1.54058e-015 2.66371e-014
lhumerus -32.4921 8.60239 84.8145
lradius 27.7166
lwrist -5.79635
lhand -18.4577 25.5673
lfingers 7.12502
lthumb 7.82856 55.4024
rfemur -8.5852 5.8557 26.0698
rtibia 20.3567
rfoot -9.77575 -4.6731
rtoes 22.6291
lfemur -21.8068 -0.999126 -18.2669
ltibia 65.9916
lfoot -1.13679 -3.62404
ltoes -9.33082
449
root 7.60818 17.6933 10.5323 67.9226 92.6519 67.3179
lowerback 8.41041 -0.341917 -0.130611
upperback -0.0876174 -0.278103 3.0051
thorax -4.79839 -0.0802773 3.23849
lowerneck -17.3656 -3.28488 -8.51334
upperneck 23.2518 -2.88897 3.73802
head 10.5276 -1.54364 2.36999
rclavicle -1.09332e-014 3.45885e-014
rhumerus -31.2631 -9.81763 -80.232
rradius 27.5636
rwrist 8.99022
rhand -13.6365 10.7514
rfingers 7.12502
rthumb 12.4796 -18.856
lclavicle -1.09332e-014 3.45885e-014
lhumerus -32.6072 9.05846 84.6921
lradius 27.7868
lwrist -5.74745
lhand -17.1794 24.5982
lfingers 7.12502
lthumb 9.06223 54.3836
rfemur -8.33937 5.86958 26.0679
rtibia 21.0797
rfoot -10.5438 -4.6213
rtoes 23.6634
lfemur -22.6074 -1.06178 -18.2712
ltibia 65.6732
lfoot -2.47083 -2.64513
ltoes -9.18803
450
root 7.72645 17.6773 10.539 70.9292 92.7385 70.4284
lowerback 8.65117 -0.263261 0.0585689
upperback -0.136797 -0.143909 3.06196
thorax -4.99365 -0.0147601 3.17821
lowerneck -17.2131 -3.25563 -9.00778
upperneck 23.3445 -2.78061 3.99973
head 10.5382 -1.50656 2.56534
rclavicle 1.83876e-015 -7.15625e-015
rhumerus -31.2062 -9.54417 -80.1921
rradius 27.7932
rwrist 9.02639
rhand -13.6501 10.3947
rfingers 7.12502
rthumb 12.4665 -19.2134
lclavicle 1.83876e-015 -7.15625e-015
lhumerus -32.9621 9.4456 84.6765
lradius 27.8972
lwrist -6.15124
lhand -17.0505 24.8772
lfingers 7.12502
lthumb 9.18663 54.6571
rfemur -8.14482 5.87453 26.3352
rtibia 21.7998
rfoot -11.2023 -4.6555
rtoes 23.037
lfemur -23.3249 -0.951838 -18.1203
ltibia 65.1967
lfoot -3.73296 -1.60606
ltoes -10.0246
451
root 7.84993 17.6585 10.547 72.5117 92.7211 72.1085
lowerback 8.78692 -0.0544268 0.126082
upperback -0.167584 0.131148 2.87346
thorax -5.11644 0.11661 2.90855
lowerneck -16.8808 -3.27296 -8.42403
upperneck 23.2873 -2.96474 3.86903
head 10.4525 -1.55428 2.39597
rclavicle 2.23633e-015 2.06736e-014
rhumerus -31.3298 -9.41952 -80.4357
rradius 28.1631
rwrist 8.38541
rhand -13.7473 10.338
rfingers 7.12502
rthumb 12.3728 -19.2758
lclavicle 2.23633e-015 2.06736e-014
lhumerus -33.238 9.80613 84.3163
lradius 27.9154
lwrist -7.0389
lhand -16.8172 24.7694
lfingers 7.12502
lthumb 9.41172 54.5393
rfemur -7.77975 6.17706 26.4891
rtibia 22.2657
rfoot -11.6973 -5.03544
rtoes 20.8547
lfemur -23.9893 -0.999734 -18.1346
ltibia 64.5807
lfoot -4.73522 -0.769121
ltoes -9.76869
